<svg width="859" height="465" viewBox="0 0 859 465" fill="none" xmlns="http://www.w3.org/2000/svg">
<path d="M49.625 74.5625H58.9688L54.2812 39.2188L49.625 74.5625ZM3.125 120L22.9688 16.0625H85.7188L105.562 120H63.125L60.5312 97.4688H47.9375L45.4688 120H3.125ZM111.875 120V16.0625H154.125V120H111.875ZM258.031 101.594C258.031 105.094 257.542 108.021 256.562 110.375C255.583 112.708 253.979 114.625 251.75 116.125C249.542 117.604 246.646 118.667 243.062 119.312C239.479 119.938 235.083 120.25 229.875 120.25H188.406C183.198 120.25 178.802 119.938 175.219 119.312C171.635 118.667 168.75 117.625 166.562 116.188C164.396 114.729 162.823 112.812 161.844 110.438C160.865 108.042 160.375 105.094 160.375 101.594V56.875C160.375 53.375 160.865 50.4375 161.844 48.0625C162.823 45.6667 164.396 43.75 166.562 42.3125C168.75 40.8542 171.635 39.8125 175.219 39.1875C178.802 38.5417 183.198 38.2188 188.406 38.2188H229.875C235.083 38.2188 239.479 38.5417 243.062 39.1875C246.646 39.8125 249.542 40.875 251.75 42.375C253.979 43.8542 255.583 45.7917 256.562 48.1875C257.542 50.5625 258.031 53.4583 258.031 56.875V81.5312H203.25V98.2812C203.25 102.448 205.219 104.531 209.156 104.531C211.198 104.531 212.688 104.042 213.625 103.062C214.562 102.083 215.031 100.49 215.031 98.2812V87.7812H258.031V101.594ZM202.875 60.3125L202.906 66.8438H215.562L215.531 60.3125C215.531 55.7083 213.406 53.4062 209.156 53.4062C206.927 53.4062 205.323 53.9479 204.344 55.0312C203.365 56.0938 202.875 57.8542 202.875 60.3125ZM328.5 37.9688H370.969L353.188 78.0938L370.719 120H326.438L317.75 85.4062L308.781 120H264.5L282.031 78.0938L264.25 37.9688H306.719L317.469 68.6875L328.5 37.9688ZM432.688 96.2812V83.5938L426.938 85.5312C424.188 86.4688 422.281 87.5833 421.219 88.875C420.177 90.1458 419.646 92.0208 419.625 94.5V96.2812C419.625 100.635 421.76 102.812 426.031 102.812C428.24 102.812 429.896 102.302 431 101.281C432.125 100.26 432.688 98.5938 432.688 96.2812ZM432.375 67.0625L432.406 59.875C432.427 57.3958 431.917 55.6875 430.875 54.75C429.854 53.8125 428.24 53.3438 426.031 53.3438C423.802 53.3438 422.198 53.8542 421.219 54.875C420.26 55.8958 419.771 57.5625 419.75 59.875V62.5625H378.656L378.688 56.6875C378.688 53.1667 379.177 50.2188 380.156 47.8438C381.135 45.4479 382.729 43.5208 384.938 42.0625C387.146 40.6042 390.042 39.5625 393.625 38.9375C397.208 38.2917 401.604 37.9688 406.812 37.9688H446.25C451.458 37.9688 455.854 38.2917 459.438 38.9375C463.021 39.5625 465.927 40.625 468.156 42.125C470.385 43.625 471.979 45.5729 472.938 47.9688C473.917 50.3646 474.417 53.2708 474.438 56.6875L474.406 120H407.188C397.646 120.167 390.417 118.271 385.5 114.312C380.604 110.333 377.854 102.917 377.25 92.0625C378.667 75.875 388.521 67.5417 406.812 67.0625H432.375ZM480.625 120V38H547.906C557.448 37.6667 564.688 39.5312 569.625 43.5938C574.583 47.6354 577.062 53.5312 577.062 61.2812V120H534.719V62.6875C534.719 58.5208 532.76 56.4375 528.844 56.4375C526.802 56.4375 525.312 56.9271 524.375 57.9062C523.438 58.8854 522.969 60.4792 522.969 62.6875V120H480.625ZM638.188 98.375L638.156 61.5C638.156 57.4375 636.198 55.4062 632.281 55.4062C630.219 55.4062 628.719 55.875 627.781 56.8125C626.865 57.7292 626.396 59.2917 626.375 61.5L626.406 98.375C626.406 102.438 628.375 104.469 632.312 104.469C636.229 104.469 638.188 102.438 638.188 98.375ZM638.688 16.0625H681.062V101.656C681.042 105.135 680.542 108.042 679.562 110.375C678.604 112.688 677.031 114.542 674.844 115.938C672.677 117.333 669.802 118.354 666.219 119C662.635 119.625 658.24 119.938 653.031 119.938H611.562C606.354 119.938 601.958 119.625 598.375 119C594.792 118.354 591.885 117.312 589.656 115.875C587.448 114.438 585.844 112.562 584.844 110.25C583.865 107.917 583.385 105.052 583.406 101.656V56.1562C583.385 52.8438 583.865 50.0312 584.844 47.7188C585.844 45.3854 587.448 43.5 589.656 42.0625C591.885 40.625 594.792 39.5938 598.375 38.9688C601.958 38.3229 606.354 38 611.562 38H638.688V16.0625ZM784.906 101.594C784.906 105.094 784.417 108.021 783.438 110.375C782.458 112.708 780.854 114.625 778.625 116.125C776.417 117.604 773.521 118.667 769.938 119.312C766.354 119.938 761.958 120.25 756.75 120.25H715.281C710.073 120.25 705.677 119.938 702.094 119.312C698.51 118.667 695.625 117.625 693.438 116.188C691.271 114.729 689.698 112.812 688.719 110.438C687.74 108.042 687.25 105.094 687.25 101.594V56.875C687.25 53.375 687.74 50.4375 688.719 48.0625C689.698 45.6667 691.271 43.75 693.438 42.3125C695.625 40.8542 698.51 39.8125 702.094 39.1875C705.677 38.5417 710.073 38.2188 715.281 38.2188H756.75C761.958 38.2188 766.354 38.5417 769.938 39.1875C773.521 39.8125 776.417 40.875 778.625 42.375C780.854 43.8542 782.458 45.7917 783.438 48.1875C784.417 50.5625 784.906 53.4583 784.906 56.875V81.5312H730.125V98.2812C730.125 102.448 732.094 104.531 736.031 104.531C738.073 104.531 739.562 104.042 740.5 103.062C741.438 102.083 741.906 100.49 741.906 98.2812V87.7812H784.906V101.594ZM729.75 60.3125L729.781 66.8438H742.438L742.406 60.3125C742.406 55.7083 740.281 53.4062 736.031 53.4062C733.802 53.4062 732.198 53.9479 731.219 55.0312C730.24 56.0938 729.75 57.8542 729.75 60.3125ZM791.125 120V38.25H832.25V44.6562C836.958 39.5312 844.562 37.3542 855.062 38.125V61.3125C841.479 61.3958 834.302 66.3958 833.531 76.3125V120H791.125Z" fill="#FFE54F"/>
<path d="M25.4688 283.938L3.125 180H45.5312L52.8438 246.062L60.1875 180H102.562L80.3125 283.938H25.4688ZM108.875 284V180.062H151.125V284H108.875ZM212.812 260.281V247.594L207.062 249.531C204.312 250.469 202.406 251.583 201.344 252.875C200.302 254.146 199.771 256.021 199.75 258.5V260.281C199.75 264.635 201.885 266.812 206.156 266.812C208.365 266.812 210.021 266.302 211.125 265.281C212.25 264.26 212.812 262.594 212.812 260.281ZM212.5 231.062L212.531 223.875C212.552 221.396 212.042 219.688 211 218.75C209.979 217.812 208.365 217.344 206.156 217.344C203.927 217.344 202.323 217.854 201.344 218.875C200.385 219.896 199.896 221.562 199.875 223.875V226.562H158.781L158.812 220.688C158.812 217.167 159.302 214.219 160.281 211.844C161.26 209.448 162.854 207.521 165.062 206.062C167.271 204.604 170.167 203.562 173.75 202.938C177.333 202.292 181.729 201.969 186.938 201.969H226.375C231.583 201.969 235.979 202.292 239.562 202.938C243.146 203.562 246.052 204.625 248.281 206.125C250.51 207.625 252.104 209.573 253.062 211.969C254.042 214.365 254.542 217.271 254.562 220.688L254.531 284H187.312C177.771 284.167 170.542 282.271 165.625 278.312C160.729 274.333 157.979 266.917 157.375 256.062C158.792 239.875 168.646 231.542 186.938 231.062H212.5ZM358.406 265.594C358.385 269.094 357.885 272.021 356.906 274.375C355.927 276.708 354.323 278.625 352.094 280.125C349.885 281.604 346.99 282.667 343.406 283.312C339.823 283.938 335.427 284.25 330.219 284.25H288.75C283.542 284.25 279.146 283.938 275.562 283.312C271.979 282.667 269.094 281.625 266.906 280.188C264.74 278.729 263.167 276.812 262.188 274.438C261.208 272.042 260.729 269.094 260.75 265.594L260.719 255.5H303.594V262.281C303.594 266.448 305.562 268.531 309.5 268.531C311.542 268.531 313.031 268.042 313.969 267.062C314.927 266.083 315.396 264.49 315.375 262.281V260.094C315.375 256.427 312.104 253.75 305.562 252.062L280.938 246.031C273.271 244.073 268.115 241.906 265.469 239.531C262.823 237.135 261.51 233.469 261.531 228.531L261.5 220.875C261.5 217.375 261.99 214.438 262.969 212.062C263.969 209.667 265.573 207.75 267.781 206.312C269.99 204.854 272.885 203.812 276.469 203.188C280.052 202.542 284.448 202.219 289.656 202.219H330.219C335.427 202.219 339.823 202.542 343.406 203.188C346.99 203.812 349.885 204.875 352.094 206.375C354.323 207.854 355.927 209.792 356.906 212.188C357.885 214.562 358.375 217.458 358.375 220.875L358.406 226.375H315.906V224.312C315.885 220.146 313.917 218.062 310 218.062C308.292 218.062 306.885 218.49 305.781 219.344C304.677 220.198 304.125 221.302 304.125 222.656C304.146 223.51 304.281 224.281 304.531 224.969C304.781 225.635 305.302 226.271 306.094 226.875C306.906 227.479 308.073 228.062 309.594 228.625C311.135 229.167 313.188 229.729 315.75 230.312L334.188 234.938C343.75 237.396 350.156 240.073 353.406 242.969C356.74 245.781 358.406 250.042 358.406 255.75V265.594ZM364.625 284V201.938H406.875V284H364.625ZM364.625 197.781V180.156H406.875V197.781H364.625ZM413.125 284V202H480.406C489.948 201.667 497.188 203.531 502.125 207.594C507.083 211.635 509.562 217.531 509.562 225.281V284H467.219V226.688C467.219 222.521 465.26 220.438 461.344 220.438C459.302 220.438 457.812 220.927 456.875 221.906C455.938 222.885 455.469 224.479 455.469 226.688V284H413.125Z" fill="#FFE54F"/>
<path d="M49.625 409.562H58.9688L54.2812 374.219L49.625 409.562ZM3.125 455L22.9688 351.062H85.7188L105.562 455H63.125L60.5312 432.469H47.9375L45.4688 455H3.125ZM111.875 455V373.25H153V379.656C157.708 374.531 165.312 372.354 175.812 373.125V396.312C162.229 396.396 155.052 401.396 154.281 411.312V455H111.875ZM193 373.719L193.031 351.062H235.406L235.375 373.719H247.156V389.344H235.375V455H193V389.344H182.125V373.719H193Z" fill="#FFE54F"/>
</svg>
