<svg width="1300" height="114" viewBox="0 0 1300 114" fill="none" xmlns="http://www.w3.org/2000/svg">
<path d="M910.936 66.4C909.144 70.24 906.797 73.7813 903.896 77.024C900.995 80.2667 897.709 83.1253 894.04 85.6C890.371 87.9893 886.403 89.8667 882.136 91.232C877.955 92.5973 873.603 93.28 869.08 93.28C862.851 93.28 856.963 92.0427 851.416 89.568C845.869 87.0933 840.963 83.7653 836.696 79.584C832.515 75.3173 829.187 70.4107 826.712 64.864C824.237 59.3173 823 53.4293 823 47.2C823 40.9707 824.237 35.0827 826.712 29.536C829.187 23.904 832.515 18.9973 836.696 14.816C840.963 10.5493 845.869 7.17866 851.416 4.70399C856.963 2.22933 862.851 0.991997 869.08 0.991997C873.603 0.991997 877.955 1.67466 882.136 3.03999C886.403 4.40533 890.371 6.32533 894.04 8.8C897.709 11.1893 900.995 14.048 903.896 17.376C906.797 20.6187 909.144 24.16 910.936 28L904.152 34.912C903.384 30.304 902.104 25.9947 900.312 21.984C898.52 17.9733 896.131 14.5173 893.144 11.616C890.243 8.71466 886.787 6.45333 882.776 4.83199C878.765 3.12533 874.2 2.272 869.08 2.272C862.851 2.272 857.475 3.46666 852.952 5.856C848.515 8.16 844.803 11.36 841.816 15.456C838.915 19.4667 836.739 24.2027 835.288 29.664C833.923 35.1253 833.24 40.9707 833.24 47.2C833.24 53.4293 833.923 59.2747 835.288 64.736C836.739 70.112 838.915 74.848 841.816 78.944C844.803 82.9547 848.515 86.1547 852.952 88.544C857.475 90.848 862.851 92 869.08 92C874.2 92 878.765 91.1893 882.776 89.568C886.787 87.8613 890.243 85.6 893.144 82.784C896.131 79.8827 898.52 76.4693 900.312 72.544C902.104 68.5333 903.384 64.224 904.152 59.616L910.936 66.4ZM916 47.2C916 40.9707 917.237 35.0827 919.712 29.536C922.187 23.904 925.515 18.9973 929.696 14.816C933.963 10.5493 938.869 7.17866 944.416 4.70399C949.963 2.22933 955.851 0.991997 962.08 0.991997C968.309 0.991997 974.197 2.22933 979.744 4.70399C985.376 7.17866 990.283 10.5493 994.464 14.816C998.731 18.9973 1002.1 23.904 1004.58 29.536C1007.05 35.0827 1008.29 40.9707 1008.29 47.2C1008.29 53.4293 1007.05 59.3173 1004.58 64.864C1002.1 70.4107 998.731 75.3173 994.464 79.584C990.283 83.7653 985.376 87.0933 979.744 89.568C974.197 92.0427 968.309 93.28 962.08 93.28C955.851 93.28 949.963 92.0427 944.416 89.568C938.869 87.0933 933.963 83.7653 929.696 79.584C925.515 75.3173 922.187 70.4107 919.712 64.864C917.237 59.3173 916 53.4293 916 47.2ZM926.24 47.2C926.24 53.4293 926.923 59.2747 928.288 64.736C929.739 70.112 931.915 74.848 934.816 78.944C937.803 82.9547 941.515 86.1547 945.952 88.544C950.475 90.848 955.851 92 962.08 92C968.309 92 973.685 90.848 978.208 88.544C982.731 86.1547 986.443 82.9547 989.344 78.944C992.331 74.848 994.507 70.112 995.872 64.736C997.323 59.2747 998.048 53.4293 998.048 47.2C998.048 40.9707 997.323 35.1253 995.872 29.664C994.507 24.2027 992.331 19.4667 989.344 15.456C986.443 11.36 982.731 8.16 978.208 5.856C973.685 3.46666 968.309 2.272 962.08 2.272C955.851 2.272 950.475 3.46666 945.952 5.856C941.515 8.16 937.803 11.36 934.816 15.456C931.915 19.4667 929.739 24.2027 928.288 29.664C926.923 35.1253 926.24 40.9707 926.24 47.2ZM1046.69 93.28C1044.04 93.28 1040.75 92.896 1036.83 92.128C1032.9 91.36 1029.11 89.824 1025.44 87.52C1021.77 85.216 1018.61 81.9733 1015.97 77.792C1013.41 73.6107 1012.12 68.1067 1012.12 61.28H1021.09C1021.09 67.936 1021.98 73.2693 1023.77 77.28C1025.65 81.2907 1027.91 84.4053 1030.56 86.624C1033.29 88.7573 1036.1 90.208 1039.01 90.976C1041.99 91.6587 1044.55 92 1046.69 92C1048.9 92 1051.46 91.6587 1054.37 90.976C1057.27 90.208 1060.04 88.7573 1062.69 86.624C1065.42 84.4053 1067.68 81.2907 1069.47 77.28C1071.35 73.2693 1072.29 67.936 1072.29 61.28C1072.29 54.624 1071.35 49.2053 1069.47 45.024C1067.68 40.8427 1065.42 37.6 1062.69 35.296C1060.04 32.9067 1057.27 31.2853 1054.37 30.432C1051.46 29.4933 1048.9 29.024 1046.69 29.024V26.848C1051.04 26.848 1054.24 25.7387 1056.29 23.52C1058.42 21.216 1059.49 18.016 1059.49 13.92C1059.49 9.82399 1058.42 6.87999 1056.29 5.088C1054.24 3.296 1051.04 2.39999 1046.69 2.39999C1042.33 2.39999 1039.09 3.296 1036.96 5.088C1034.91 6.87999 1033.89 9.82399 1033.89 13.92H1026.21C1026.21 11.872 1026.76 10.0373 1027.87 8.41599C1029.06 6.79466 1030.6 5.472 1032.48 4.448C1034.35 3.33866 1036.53 2.528 1039.01 2.016C1041.48 1.41866 1044.04 1.12 1046.69 1.12C1049.33 1.12 1051.89 1.41866 1054.37 2.016C1056.84 2.528 1059.02 3.33866 1060.89 4.448C1062.77 5.472 1064.26 6.79466 1065.37 8.41599C1066.57 10.0373 1067.17 11.872 1067.17 13.92C1067.17 15.7973 1066.7 17.5467 1065.76 19.168C1064.82 20.704 1063.58 22.112 1062.05 23.392C1060.59 24.5867 1058.93 25.568 1057.05 26.336C1055.18 27.104 1053.26 27.616 1051.29 27.872V28.128C1053.85 28.384 1056.84 29.1093 1060.25 30.304C1063.75 31.4133 1067.04 33.248 1070.11 35.808C1073.27 38.368 1075.91 41.7387 1078.05 45.92C1080.18 50.016 1081.25 55.136 1081.25 61.28C1081.25 68.1067 1079.92 73.6107 1077.28 77.792C1074.72 81.9733 1071.6 85.216 1067.93 87.52C1064.26 89.824 1060.47 91.36 1056.54 92.128C1052.62 92.896 1049.33 93.28 1046.69 93.28ZM1079.94 92L1085.06 108.64H1077.38V90.72H1079.68C1083.86 90.72 1087.06 89.0987 1089.28 85.856C1091.58 82.6133 1093.25 77.4933 1094.27 70.496C1095.3 63.4133 1095.89 54.368 1096.06 43.36C1096.23 32.352 1096.32 19.1253 1096.32 3.67999H1091.71V2.39999H1114.75V90.72H1121.15V108.64H1113.47L1118.59 92H1079.94ZM1097.6 3.67999C1097.6 17.5893 1097.51 29.664 1097.34 39.904C1097.17 50.144 1096.7 58.7627 1095.94 65.76C1095.17 72.672 1094.02 78.1333 1092.48 82.144C1090.94 86.1547 1088.77 88.928 1085.95 90.464V90.72H1107.07V3.67999H1097.6ZM1141.58 66.4H1132.11L1129.16 92H1127.5L1135.95 18.528L1134.03 2.39999H1141.84L1152.59 92H1144.65L1141.58 66.4ZM1141.45 65.12L1137.1 27.872H1136.59L1132.24 65.12H1141.45ZM1151.38 3.67999V2.39999H1189.78V3.67999H1174.42V92H1166.74V3.67999H1151.38ZM1194.88 92V2.39999H1217.92V3.67999H1202.56V34.4H1210.24V35.68H1202.56V90.72H1217.92V92H1194.88ZM1250.52 3.67999H1241.05C1241.05 19.8933 1241 33.632 1240.92 44.896C1240.92 56.0747 1240.41 65.1627 1239.38 72.16C1238.36 79.1573 1236.61 84.2347 1234.13 87.392C1231.66 90.464 1227.99 92 1223.12 92V84.32C1225.94 84.32 1228.29 84.064 1230.17 83.552C1232.04 83.04 1233.58 81.888 1234.77 80.096C1236.05 78.2187 1237.03 75.5307 1237.72 72.032C1238.4 68.5333 1238.87 63.7973 1239.12 57.824C1239.47 51.8507 1239.64 44.4693 1239.64 35.68C1239.72 26.8053 1239.77 16.1387 1239.77 3.67999H1235.16V2.39999H1258.2V92H1250.52V3.67999ZM1278.93 62.944H1279.19L1299.15 2.39999V92H1291.47V31.968H1291.22L1271.25 92V2.39999H1278.93V62.944Z" fill="#262019" fill-opacity="0.2"/>
<path d="M498.936 66.4C497.144 70.24 494.797 73.7813 491.896 77.024C488.995 80.2667 485.709 83.1253 482.04 85.6C478.371 87.9893 474.403 89.8667 470.136 91.232C465.955 92.5973 461.603 93.28 457.08 93.28C450.851 93.28 444.963 92.0427 439.416 89.568C433.869 87.0933 428.963 83.7653 424.696 79.584C420.515 75.3173 417.187 70.4107 414.712 64.864C412.237 59.3173 411 53.4293 411 47.2C411 40.9707 412.237 35.0827 414.712 29.536C417.187 23.904 420.515 18.9973 424.696 14.816C428.963 10.5493 433.869 7.17866 439.416 4.70399C444.963 2.22933 450.851 0.991997 457.08 0.991997C461.603 0.991997 465.955 1.67466 470.136 3.03999C474.403 4.40533 478.371 6.32533 482.04 8.8C485.709 11.1893 488.995 14.048 491.896 17.376C494.797 20.6187 497.144 24.16 498.936 28L492.152 34.912C491.384 30.304 490.104 25.9947 488.312 21.984C486.52 17.9733 484.131 14.5173 481.144 11.616C478.243 8.71466 474.787 6.45333 470.776 4.83199C466.765 3.12533 462.2 2.272 457.08 2.272C450.851 2.272 445.475 3.46666 440.952 5.856C436.515 8.16 432.803 11.36 429.816 15.456C426.915 19.4667 424.739 24.2027 423.288 29.664C421.923 35.1253 421.24 40.9707 421.24 47.2C421.24 53.4293 421.923 59.2747 423.288 64.736C424.739 70.112 426.915 74.848 429.816 78.944C432.803 82.9547 436.515 86.1547 440.952 88.544C445.475 90.848 450.851 92 457.08 92C462.2 92 466.765 91.1893 470.776 89.568C474.787 87.8613 478.243 85.6 481.144 82.784C484.131 79.8827 486.52 76.4693 488.312 72.544C490.104 68.5333 491.384 64.224 492.152 59.616L498.936 66.4ZM504 47.2C504 40.9707 505.237 35.0827 507.712 29.536C510.187 23.904 513.515 18.9973 517.696 14.816C521.963 10.5493 526.869 7.17866 532.416 4.70399C537.963 2.22933 543.851 0.991997 550.08 0.991997C556.309 0.991997 562.197 2.22933 567.744 4.70399C573.376 7.17866 578.283 10.5493 582.464 14.816C586.731 18.9973 590.101 23.904 592.576 29.536C595.051 35.0827 596.288 40.9707 596.288 47.2C596.288 53.4293 595.051 59.3173 592.576 64.864C590.101 70.4107 586.731 75.3173 582.464 79.584C578.283 83.7653 573.376 87.0933 567.744 89.568C562.197 92.0427 556.309 93.28 550.08 93.28C543.851 93.28 537.963 92.0427 532.416 89.568C526.869 87.0933 521.963 83.7653 517.696 79.584C513.515 75.3173 510.187 70.4107 507.712 64.864C505.237 59.3173 504 53.4293 504 47.2ZM514.24 47.2C514.24 53.4293 514.923 59.2747 516.288 64.736C517.739 70.112 519.915 74.848 522.816 78.944C525.803 82.9547 529.515 86.1547 533.952 88.544C538.475 90.848 543.851 92 550.08 92C556.309 92 561.685 90.848 566.208 88.544C570.731 86.1547 574.443 82.9547 577.344 78.944C580.331 74.848 582.507 70.112 583.872 64.736C585.323 59.2747 586.048 53.4293 586.048 47.2C586.048 40.9707 585.323 35.1253 583.872 29.664C582.507 24.2027 580.331 19.4667 577.344 15.456C574.443 11.36 570.731 8.16 566.208 5.856C561.685 3.46666 556.309 2.272 550.08 2.272C543.851 2.272 538.475 3.46666 533.952 5.856C529.515 8.16 525.803 11.36 522.816 15.456C519.915 19.4667 517.739 24.2027 516.288 29.664C514.923 35.1253 514.24 40.9707 514.24 47.2ZM634.685 93.28C632.04 93.28 628.754 92.896 624.829 92.128C620.904 91.36 617.106 89.824 613.437 87.52C609.768 85.216 606.61 81.9733 603.965 77.792C601.405 73.6107 600.125 68.1067 600.125 61.28H609.085C609.085 67.936 609.981 73.2693 611.773 77.28C613.65 81.2907 615.912 84.4053 618.557 86.624C621.288 88.7573 624.104 90.208 627.005 90.976C629.992 91.6587 632.552 92 634.685 92C636.904 92 639.464 91.6587 642.365 90.976C645.266 90.208 648.04 88.7573 650.685 86.624C653.416 84.4053 655.677 81.2907 657.469 77.28C659.346 73.2693 660.285 67.936 660.285 61.28C660.285 54.624 659.346 49.2053 657.469 45.024C655.677 40.8427 653.416 37.6 650.685 35.296C648.04 32.9067 645.266 31.2853 642.365 30.432C639.464 29.4933 636.904 29.024 634.685 29.024V26.848C639.037 26.848 642.237 25.7387 644.285 23.52C646.418 21.216 647.485 18.016 647.485 13.92C647.485 9.82399 646.418 6.87999 644.285 5.088C642.237 3.296 639.037 2.39999 634.685 2.39999C630.333 2.39999 627.09 3.296 624.957 5.088C622.909 6.87999 621.885 9.82399 621.885 13.92H614.205C614.205 11.872 614.76 10.0373 615.869 8.41599C617.064 6.79466 618.6 5.472 620.477 4.448C622.354 3.33866 624.53 2.528 627.005 2.016C629.48 1.41866 632.04 1.12 634.685 1.12C637.33 1.12 639.89 1.41866 642.365 2.016C644.84 2.528 647.016 3.33866 648.893 4.448C650.77 5.472 652.264 6.79466 653.373 8.41599C654.568 10.0373 655.165 11.872 655.165 13.92C655.165 15.7973 654.696 17.5467 653.757 19.168C652.818 20.704 651.581 22.112 650.045 23.392C648.594 24.5867 646.93 25.568 645.053 26.336C643.176 27.104 641.256 27.616 639.293 27.872V28.128C641.853 28.384 644.84 29.1093 648.253 30.304C651.752 31.4133 655.037 33.248 658.109 35.808C661.266 38.368 663.912 41.7387 666.045 45.92C668.178 50.016 669.245 55.136 669.245 61.28C669.245 68.1067 667.922 73.6107 665.277 77.792C662.717 81.9733 659.602 85.216 655.933 87.52C652.264 89.824 648.466 91.36 644.541 92.128C640.616 92.896 637.33 93.28 634.685 93.28ZM667.935 92L673.055 108.64H665.375V90.72H667.679C671.86 90.72 675.06 89.0987 677.279 85.856C679.583 82.6133 681.247 77.4933 682.271 70.496C683.295 63.4133 683.892 54.368 684.063 43.36C684.234 32.352 684.319 19.1253 684.319 3.67999H679.711V2.39999H702.751V90.72H709.151V108.64H701.471L706.591 92H667.935ZM685.599 3.67999C685.599 17.5893 685.514 29.664 685.343 39.904C685.172 50.144 684.703 58.7627 683.935 65.76C683.167 72.672 682.015 78.1333 680.479 82.144C678.943 86.1547 676.767 88.928 673.951 90.464V90.72H695.071V3.67999H685.599ZM729.58 66.4H720.108L717.164 92H715.5L723.948 18.528L722.028 2.39999H729.836L740.588 92H732.652L729.58 66.4ZM729.452 65.12L725.1 27.872H724.588L720.236 65.12H729.452ZM739.375 3.67999V2.39999H777.775V3.67999H762.415V92H754.735V3.67999H739.375ZM782.875 92V2.39999H805.915V3.67999H790.555V34.4H798.235V35.68H790.555V90.72H805.915V92H782.875ZM838.517 3.67999H829.045C829.045 19.8933 829.002 33.632 828.917 44.896C828.917 56.0747 828.405 65.1627 827.381 72.16C826.357 79.1573 824.608 84.2347 822.133 87.392C819.658 90.464 815.989 92 811.125 92V84.32C813.941 84.32 816.288 84.064 818.165 83.552C820.042 83.04 821.578 81.888 822.773 80.096C824.053 78.2187 825.034 75.5307 825.717 72.032C826.4 68.5333 826.869 63.7973 827.125 57.824C827.466 51.8507 827.637 44.4693 827.637 35.68C827.722 26.8053 827.765 16.1387 827.765 3.67999H823.157V2.39999H846.197V92H838.517V3.67999ZM866.93 62.944H867.186L887.154 2.39999V92H879.474V31.968H879.218L859.25 92V2.39999H866.93V62.944Z" fill="#262019" fill-opacity="0.2"/>
<path d="M87.936 66.4C86.144 70.24 83.7973 73.7813 80.896 77.024C77.9947 80.2667 74.7093 83.1253 71.04 85.6C67.3707 87.9893 63.4027 89.8667 59.136 91.232C54.9547 92.5973 50.6027 93.28 46.08 93.28C39.8507 93.28 33.9627 92.0427 28.416 89.568C22.8693 87.0933 17.9627 83.7653 13.696 79.584C9.51467 75.3173 6.18667 70.4107 3.712 64.864C1.23733 59.3173 0 53.4293 0 47.2C0 40.9707 1.23733 35.0827 3.712 29.536C6.18667 23.904 9.51467 18.9973 13.696 14.816C17.9627 10.5493 22.8693 7.17866 28.416 4.70399C33.9627 2.22933 39.8507 0.991997 46.08 0.991997C50.6027 0.991997 54.9547 1.67466 59.136 3.03999C63.4027 4.40533 67.3707 6.32533 71.04 8.8C74.7093 11.1893 77.9947 14.048 80.896 17.376C83.7973 20.6187 86.144 24.16 87.936 28L81.152 34.912C80.384 30.304 79.104 25.9947 77.312 21.984C75.52 17.9733 73.1307 14.5173 70.144 11.616C67.2427 8.71466 63.7867 6.45333 59.776 4.83199C55.7653 3.12533 51.2 2.272 46.08 2.272C39.8507 2.272 34.4747 3.46666 29.952 5.856C25.5147 8.16 21.8027 11.36 18.816 15.456C15.9147 19.4667 13.7387 24.2027 12.288 29.664C10.9227 35.1253 10.24 40.9707 10.24 47.2C10.24 53.4293 10.9227 59.2747 12.288 64.736C13.7387 70.112 15.9147 74.848 18.816 78.944C21.8027 82.9547 25.5147 86.1547 29.952 88.544C34.4747 90.848 39.8507 92 46.08 92C51.2 92 55.7653 91.1893 59.776 89.568C63.7867 87.8613 67.2427 85.6 70.144 82.784C73.1307 79.8827 75.52 76.4693 77.312 72.544C79.104 68.5333 80.384 64.224 81.152 59.616L87.936 66.4ZM93 47.2C93 40.9707 94.2373 35.0827 96.712 29.536C99.1867 23.904 102.515 18.9973 106.696 14.816C110.963 10.5493 115.869 7.17866 121.416 4.70399C126.963 2.22933 132.851 0.991997 139.08 0.991997C145.309 0.991997 151.197 2.22933 156.744 4.70399C162.376 7.17866 167.283 10.5493 171.464 14.816C175.731 18.9973 179.101 23.904 181.576 29.536C184.051 35.0827 185.288 40.9707 185.288 47.2C185.288 53.4293 184.051 59.3173 181.576 64.864C179.101 70.4107 175.731 75.3173 171.464 79.584C167.283 83.7653 162.376 87.0933 156.744 89.568C151.197 92.0427 145.309 93.28 139.08 93.28C132.851 93.28 126.963 92.0427 121.416 89.568C115.869 87.0933 110.963 83.7653 106.696 79.584C102.515 75.3173 99.1867 70.4107 96.712 64.864C94.2373 59.3173 93 53.4293 93 47.2ZM103.24 47.2C103.24 53.4293 103.923 59.2747 105.288 64.736C106.739 70.112 108.915 74.848 111.816 78.944C114.803 82.9547 118.515 86.1547 122.952 88.544C127.475 90.848 132.851 92 139.08 92C145.309 92 150.685 90.848 155.208 88.544C159.731 86.1547 163.443 82.9547 166.344 78.944C169.331 74.848 171.507 70.112 172.872 64.736C174.323 59.2747 175.048 53.4293 175.048 47.2C175.048 40.9707 174.323 35.1253 172.872 29.664C171.507 24.2027 169.331 19.4667 166.344 15.456C163.443 11.36 159.731 8.16 155.208 5.856C150.685 3.46666 145.309 2.272 139.08 2.272C132.851 2.272 127.475 3.46666 122.952 5.856C118.515 8.16 114.803 11.36 111.816 15.456C108.915 19.4667 106.739 24.2027 105.288 29.664C103.923 35.1253 103.24 40.9707 103.24 47.2ZM223.685 93.28C221.04 93.28 217.754 92.896 213.829 92.128C209.904 91.36 206.106 89.824 202.437 87.52C198.768 85.216 195.61 81.9733 192.965 77.792C190.405 73.6107 189.125 68.1067 189.125 61.28H198.085C198.085 67.936 198.981 73.2693 200.773 77.28C202.65 81.2907 204.912 84.4053 207.557 86.624C210.288 88.7573 213.104 90.208 216.005 90.976C218.992 91.6587 221.552 92 223.685 92C225.904 92 228.464 91.6587 231.365 90.976C234.266 90.208 237.04 88.7573 239.685 86.624C242.416 84.4053 244.677 81.2907 246.469 77.28C248.346 73.2693 249.285 67.936 249.285 61.28C249.285 54.624 248.346 49.2053 246.469 45.024C244.677 40.8427 242.416 37.6 239.685 35.296C237.04 32.9067 234.266 31.2853 231.365 30.432C228.464 29.4933 225.904 29.024 223.685 29.024V26.848C228.037 26.848 231.237 25.7387 233.285 23.52C235.418 21.216 236.485 18.016 236.485 13.92C236.485 9.82399 235.418 6.87999 233.285 5.088C231.237 3.296 228.037 2.39999 223.685 2.39999C219.333 2.39999 216.09 3.296 213.957 5.088C211.909 6.87999 210.885 9.82399 210.885 13.92H203.205C203.205 11.872 203.76 10.0373 204.869 8.41599C206.064 6.79466 207.6 5.472 209.477 4.448C211.354 3.33866 213.53 2.528 216.005 2.016C218.48 1.41866 221.04 1.12 223.685 1.12C226.33 1.12 228.89 1.41866 231.365 2.016C233.84 2.528 236.016 3.33866 237.893 4.448C239.77 5.472 241.264 6.79466 242.373 8.41599C243.568 10.0373 244.165 11.872 244.165 13.92C244.165 15.7973 243.696 17.5467 242.757 19.168C241.818 20.704 240.581 22.112 239.045 23.392C237.594 24.5867 235.93 25.568 234.053 26.336C232.176 27.104 230.256 27.616 228.293 27.872V28.128C230.853 28.384 233.84 29.1093 237.253 30.304C240.752 31.4133 244.037 33.248 247.109 35.808C250.266 38.368 252.912 41.7387 255.045 45.92C257.178 50.016 258.245 55.136 258.245 61.28C258.245 68.1067 256.922 73.6107 254.277 77.792C251.717 81.9733 248.602 85.216 244.933 87.52C241.264 89.824 237.466 91.36 233.541 92.128C229.616 92.896 226.33 93.28 223.685 93.28ZM256.935 92L262.055 108.64H254.375V90.72H256.679C260.86 90.72 264.06 89.0987 266.279 85.856C268.583 82.6133 270.247 77.4933 271.271 70.496C272.295 63.4133 272.892 54.368 273.063 43.36C273.234 32.352 273.319 19.1253 273.319 3.67999H268.711V2.39999H291.751V90.72H298.151V108.64H290.471L295.591 92H256.935ZM274.599 3.67999C274.599 17.5893 274.514 29.664 274.343 39.904C274.172 50.144 273.703 58.7627 272.935 65.76C272.167 72.672 271.015 78.1333 269.479 82.144C267.943 86.1547 265.767 88.928 262.951 90.464V90.72H284.071V3.67999H274.599ZM318.58 66.4H309.108L306.164 92H304.5L312.948 18.528L311.028 2.39999H318.836L329.588 92H321.652L318.58 66.4ZM318.452 65.12L314.1 27.872H313.588L309.236 65.12H318.452ZM328.375 3.67999V2.39999H366.775V3.67999H351.415V92H343.735V3.67999H328.375ZM371.875 92V2.39999H394.915V3.67999H379.555V34.4H387.235V35.68H379.555V90.72H394.915V92H371.875ZM427.517 3.67999H418.045C418.045 19.8933 418.002 33.632 417.917 44.896C417.917 56.0747 417.405 65.1627 416.381 72.16C415.357 79.1573 413.608 84.2347 411.133 87.392C408.658 90.464 404.989 92 400.125 92V84.32C402.941 84.32 405.288 84.064 407.165 83.552C409.042 83.04 410.578 81.888 411.773 80.096C413.053 78.2187 414.034 75.5307 414.717 72.032C415.4 68.5333 415.869 63.7973 416.125 57.824C416.466 51.8507 416.637 44.4693 416.637 35.68C416.722 26.8053 416.765 16.1387 416.765 3.67999H412.157V2.39999H435.197V92H427.517V3.67999ZM455.93 62.944H456.186L476.154 2.39999V92H468.474V31.968H468.218L448.25 92V2.39999H455.93V62.944Z" fill="#262019" fill-opacity="0.2"/>
</svg>
