<svg width="581" height="869" viewBox="0 0 581 869" fill="none" xmlns="http://www.w3.org/2000/svg">
<path fill-rule="evenodd" clip-rule="evenodd" d="M6.00002 858.836L6.21669 857.6L6.47588 856.123C6.31722 856.095 6.1586 856.067 6.00002 856.039V858.836ZM6.00002 121.968C6.15851 121.94 6.31704 121.912 6.4756 121.884L6.21642 120.406L6.00002 119.173V121.968ZM457.488 491.993L458.988 492.005C458.996 491.006 459 490.005 459 489.003C459 488.002 458.996 487.001 458.988 486.002L457.488 486.014L455.988 486.026C455.996 487.017 456 488.01 456 489.003C456 489.997 455.996 490.99 455.988 491.981L457.488 491.993ZM457.393 480.05L458.892 480.014C458.844 478.023 458.781 476.035 458.701 474.05L457.203 474.11L455.704 474.17C455.783 476.139 455.846 478.111 455.893 480.086L457.393 480.05ZM456.918 468.178L458.415 468.094C458.303 466.097 458.175 464.104 458.032 462.115L456.536 462.224L455.039 462.332C455.182 464.304 455.309 466.281 455.42 468.262L456.918 468.178ZM456.059 456.295L457.553 456.163C457.378 454.182 457.187 452.205 456.98 450.233L455.488 450.39L453.996 450.546C454.201 452.502 454.391 454.462 454.565 456.427L456.059 456.295ZM454.818 444.46L456.307 444.279C456.067 442.299 455.811 440.324 455.54 438.353L454.054 438.558L452.568 438.762C452.837 440.717 453.091 442.676 453.329 444.64L454.818 444.46ZM453.196 432.685L454.679 432.456C454.374 430.481 454.054 428.512 453.718 426.547L452.239 426.8L450.761 427.053C451.094 429.001 451.412 430.955 451.714 432.914L453.196 432.685ZM451.188 420.94L452.662 420.663C452.295 418.707 451.912 416.757 451.513 414.811L450.044 415.112L448.574 415.413C448.969 417.342 449.349 419.277 449.714 421.217L451.188 420.94ZM448.924 403.136C449.387 405.072 449.834 407.014 450.266 408.962L448.802 409.287L447.337 409.612C446.909 407.68 446.465 405.754 446.006 403.833L447.465 403.484L448.924 403.136ZM446.037 397.716L447.49 397.344C446.995 395.412 446.484 393.486 445.959 391.567L444.512 391.963L443.065 392.359C443.587 394.263 444.093 396.173 444.584 398.089L446.037 397.716ZM442.617 380.095C443.204 381.994 443.776 383.9 444.333 385.812L442.893 386.232L441.453 386.651C440.901 384.755 440.333 382.865 439.751 380.981L441.184 380.538L442.617 380.095ZM439.381 374.868L440.807 374.402C440.187 372.506 439.552 370.616 438.902 368.733L437.484 369.223L436.066 369.712C436.71 371.579 437.34 373.454 437.955 375.334L439.381 374.868ZM435.498 363.617L436.908 363.105C436.227 361.232 435.532 359.367 434.822 357.508L433.421 358.043L432.02 358.579C432.724 360.422 433.413 362.272 434.088 364.13L435.498 363.617ZM431.251 352.498L432.643 351.94C431.903 350.091 431.147 348.249 430.377 346.414L428.994 346.994L427.611 347.575C428.374 349.394 429.124 351.221 429.859 353.055L431.251 352.498ZM426.649 341.529L428.022 340.926C427.221 339.1 426.406 337.281 425.576 335.47L424.212 336.095L422.848 336.72C423.671 338.516 424.48 340.32 425.275 342.131L426.649 341.529ZM421.69 330.707L423.044 330.06C422.185 328.263 421.312 326.474 420.426 324.693L419.083 325.361L417.74 326.03C418.62 327.796 419.485 329.571 420.337 331.353L421.69 330.707ZM416.387 320.052L417.718 319.362C416.802 317.593 415.872 315.833 414.928 314.08L413.607 314.791L412.287 315.503C413.223 317.241 414.146 318.988 415.055 320.742L416.387 320.052ZM410.745 309.578L412.054 308.845C411.081 307.106 410.094 305.375 409.093 303.652L407.796 304.405L406.499 305.158C407.491 306.867 408.47 308.584 409.436 310.31L410.745 309.578ZM404.767 299.284L406.052 298.51C405.024 296.804 403.983 295.107 402.929 293.418L401.657 294.213L400.385 295.007C401.43 296.682 402.463 298.365 403.482 300.057L404.767 299.284ZM398.464 289.188L399.724 288.374C398.642 286.701 397.547 285.037 396.44 283.382L395.193 284.217L393.947 285.051C395.046 286.693 396.132 288.343 397.205 290.003L398.464 289.188ZM391.844 279.299L393.077 278.445C391.943 276.808 390.796 275.179 389.635 273.56L388.416 274.434L387.197 275.307C388.348 276.913 389.486 278.529 390.611 280.154L391.844 279.299ZM384.912 269.623L386.117 268.731C384.932 267.13 383.734 265.539 382.524 263.958L381.332 264.87L380.141 265.782C381.342 267.35 382.531 268.929 383.707 270.516L384.912 269.623ZM377.678 260.173L378.854 259.242C377.619 257.68 376.371 256.128 375.111 254.585L373.949 255.534L372.788 256.483C374.038 258.013 375.275 259.553 376.501 261.103L377.678 260.173ZM370.148 250.954L371.295 249.987C370.011 248.465 368.715 246.953 367.408 245.451L366.276 246.436L365.145 247.421C366.443 248.911 367.728 250.411 369.002 251.921L370.148 250.954ZM362.334 241.978L363.449 240.975C362.118 239.494 360.775 238.023 359.42 236.562L358.32 237.582L357.221 238.602C358.565 240.051 359.897 241.511 361.218 242.98L362.334 241.978ZM354.241 233.251L355.324 232.214C353.948 230.775 352.56 229.347 351.16 227.929L350.093 228.983L349.025 230.037C350.414 231.443 351.791 232.86 353.157 234.288L354.241 233.251ZM345.877 224.779L346.928 223.709C345.508 222.314 344.076 220.931 342.633 219.558L341.599 220.644L340.565 221.731C341.997 223.093 343.417 224.466 344.826 225.85L345.877 224.779ZM333.848 211.455C335.334 212.783 336.809 214.123 338.273 215.473L337.256 216.576L336.239 217.678C334.786 216.338 333.323 215.009 331.849 213.692L332.848 212.573L333.848 211.455ZM328.382 208.643L329.364 207.509C327.859 206.206 326.344 204.913 324.818 203.633L323.854 204.782L322.889 205.93C324.403 207.201 325.907 208.483 327.4 209.777L328.382 208.643ZM319.264 200.989L320.21 199.825C318.666 198.569 317.112 197.325 315.547 196.093L314.619 197.271L313.691 198.449C315.243 199.672 316.785 200.907 318.317 202.153L319.264 200.989ZM309.916 193.625L310.826 192.432C309.243 191.224 307.649 190.027 306.046 188.843L305.154 190.05L304.263 191.256C305.854 192.431 307.435 193.618 309.006 194.817L309.916 193.625ZM300.341 186.551L301.214 185.331C299.595 184.174 297.966 183.028 296.328 181.895L295.475 183.128L294.621 184.362C296.247 185.486 297.863 186.623 299.469 187.772L300.341 186.551ZM290.552 179.778L291.386 178.531C289.732 177.424 288.069 176.33 286.396 175.247L285.581 176.507L284.766 177.766C286.426 178.84 288.076 179.926 289.717 181.024L290.552 179.778ZM280.562 173.313L281.357 172.042C279.668 170.986 277.971 169.942 276.264 168.911L275.488 170.195L274.713 171.479C276.406 172.502 278.091 173.537 279.766 174.585L280.562 173.313ZM270.371 167.158L271.126 165.862C269.408 164.86 267.68 163.87 265.945 162.894L265.209 164.201L264.474 165.508C266.196 166.477 267.91 167.459 269.615 168.453L270.371 167.158ZM259.997 161.321L260.712 160.003C258.962 159.054 257.204 158.118 255.437 157.194L254.743 158.524L254.048 159.853C255.801 160.769 257.545 161.698 259.282 162.64L259.997 161.321ZM249.451 155.81L250.125 154.47C248.346 153.575 246.559 152.694 244.764 151.825L244.111 153.175L243.457 154.526C245.238 155.387 247.012 156.262 248.777 157.15L249.451 155.81ZM238.731 150.623L239.363 149.263C237.56 148.425 235.75 147.6 233.932 146.789L233.32 148.158L232.709 149.528C234.513 150.333 236.31 151.152 238.098 151.983L238.731 150.623ZM227.865 145.774L228.455 144.395C226.624 143.611 224.785 142.841 222.939 142.085L222.37 143.473L221.801 144.861C223.633 145.611 225.457 146.375 227.275 147.153L227.865 145.774ZM216.853 141.262L217.4 139.865C215.547 139.139 213.687 138.426 211.819 137.728L211.294 139.132L210.768 140.537C212.621 141.231 214.467 141.938 216.306 142.658L216.853 141.262ZM205.695 137.087L206.199 135.674C204.328 135.007 202.45 134.353 200.566 133.714L200.084 135.134L199.602 136.554C201.471 137.189 203.335 137.837 205.191 138.499L205.695 137.087ZM194.433 133.265L194.894 131.837C192.996 131.225 191.092 130.628 189.182 130.045L188.744 131.479L188.306 132.914C190.201 133.493 192.09 134.085 193.973 134.692L194.433 133.265ZM183.049 129.788L183.465 128.347C181.554 127.795 179.637 127.258 177.714 126.735L177.32 128.182L176.926 129.629C178.835 130.148 180.737 130.682 182.633 131.229L183.049 129.788ZM171.555 126.661L171.926 125.208C170.001 124.716 168.07 124.238 166.134 123.774L165.785 125.233L165.436 126.692C167.357 127.152 169.273 127.626 171.183 128.114L171.555 126.661ZM159.99 123.894L160.317 122.43C158.373 121.996 156.422 121.576 154.467 121.171L154.163 122.64L153.858 124.109C155.799 124.511 157.734 124.927 159.664 125.358L159.99 123.894ZM148.328 121.478L148.609 120.005C146.658 119.632 144.702 119.273 142.741 118.929L142.482 120.406L142.222 121.884C144.169 122.225 146.11 122.581 148.046 122.951L148.328 121.478ZM136.605 119.422L136.841 117.941C134.875 117.627 132.905 117.327 130.929 117.043L130.715 118.527L130.501 120.012C132.462 120.294 134.417 120.591 136.368 120.903L136.605 119.422ZM124.83 117.725L125.022 116.237C123.048 115.983 121.07 115.744 119.087 115.519L118.918 117.01L118.749 118.5C120.717 118.723 122.68 118.961 124.639 119.213L124.83 117.725ZM112.983 116.383L113.129 114.891C111.156 114.698 109.179 114.519 107.197 114.355L107.074 115.85L106.95 117.345C108.917 117.508 110.879 117.685 112.837 117.876L112.983 116.383ZM101.139 115.405L101.24 113.908C99.2503 113.774 97.2562 113.654 95.2581 113.549L95.1796 115.047L95.1012 116.545C97.0843 116.649 99.0633 116.768 101.038 116.901L101.139 115.405ZM89.248 114.781L89.304 113.282C87.3194 113.208 85.331 113.149 83.3388 113.104L83.3052 114.604L83.2716 116.103C85.2488 116.148 87.2223 116.207 89.192 116.28L89.248 114.781ZM77.3399 114.515L77.3511 113.015C76.3514 113.007 75.3507 113.003 74.3491 113.003C73.3475 113.003 72.3469 113.007 71.3471 113.015L71.3583 114.515L71.3695 116.015C72.3618 116.007 73.355 116.003 74.3491 116.003C75.3432 116.003 76.3364 116.007 77.3287 116.015L77.3399 114.515ZM65.393 114.604L65.3594 113.104C63.3672 113.149 61.3787 113.208 59.3941 113.282L59.4501 114.781L59.5061 116.28C61.4758 116.207 63.4494 116.148 65.4266 116.103L65.393 114.604ZM53.5185 115.047L53.4401 113.549C51.4419 113.654 49.4478 113.774 47.4578 113.908L47.5589 115.405L47.6599 116.901C49.6348 116.768 51.6138 116.649 53.5969 116.545L53.5185 115.047ZM41.6242 115.85L41.5006 114.355C39.5191 114.519 37.5419 114.698 35.5691 114.891L35.7152 116.383L35.8613 117.876C37.8191 117.685 39.7813 117.508 41.7478 117.345L41.6242 115.85ZM29.7803 117.01L29.6115 115.519C27.6284 115.744 25.6499 115.983 23.6762 116.237L23.8676 117.725L24.0589 119.213C26.0177 118.961 27.9811 118.723 29.949 118.5L29.7803 117.01ZM17.9831 118.527L17.7691 117.043C15.7935 117.327 13.8227 117.627 11.8569 117.941L12.0935 119.422L12.33 120.903C14.2807 120.591 16.2365 120.294 18.197 120.012L17.9831 118.527ZM12.0937 858.585L11.8571 860.066C13.8229 860.38 15.7937 860.68 17.7694 860.964L17.9833 859.48L18.1973 857.995C16.2367 857.712 14.281 857.415 12.3303 857.104L12.0937 858.585ZM23.8678 860.282L23.6764 861.77C25.6502 862.024 27.6286 862.263 29.6117 862.487L29.7805 860.997L29.9493 859.507C27.9813 859.284 26.0179 859.046 24.0592 858.794L23.8678 860.282ZM35.7154 861.623L35.5693 863.116C37.5421 863.309 39.5193 863.488 41.5008 863.652L41.6244 862.157L41.748 860.662C39.7815 860.499 37.8193 860.322 35.8615 860.13L35.7154 861.623ZM47.5591 862.602L47.4581 864.099C49.448 864.233 51.4421 864.353 53.4402 864.457L53.5187 862.959L53.5971 861.461C51.614 861.358 49.635 861.239 47.6601 861.106L47.5591 862.602ZM59.4503 863.226L59.3943 864.724C61.3789 864.799 63.3673 864.858 65.3595 864.903L65.3931 863.403L65.4267 861.904C63.4495 861.859 61.476 861.8 59.5063 861.727L59.4503 863.226ZM71.3584 863.492L71.3472 864.992C72.3469 865 73.3476 865.003 74.3491 865.003C75.3507 865.003 76.3514 865 77.3512 864.992L77.34 863.492L77.3288 861.992C76.3365 862 75.3432 862.003 74.3491 862.003C73.3551 862.003 72.3619 862 71.3696 861.992L71.3584 863.492ZM83.3053 863.403L83.3389 864.903C85.3311 864.858 87.3195 864.799 89.3041 864.724L89.2481 863.226L89.1921 861.727C87.2224 861.8 85.2489 861.859 83.2717 861.904L83.3053 863.403ZM95.1798 862.959L95.2582 864.457C97.2564 864.353 99.2505 864.233 101.24 864.099L101.139 862.602L101.038 861.106C99.0635 861.239 97.0844 861.358 95.1013 861.461L95.1798 862.959ZM107.074 862.157L107.198 863.652C109.179 863.488 111.156 863.309 113.129 863.116L112.983 861.623L112.837 860.13C110.879 860.322 108.917 860.499 106.95 860.662L107.074 862.157ZM118.918 860.997L119.087 862.487C121.07 862.263 123.048 862.024 125.022 861.77L124.831 860.282L124.639 858.794C122.681 859.046 120.717 859.284 118.749 859.507L118.918 860.997ZM130.715 859.48L130.929 860.964C132.905 860.68 134.876 860.38 136.841 860.066L136.605 858.585L136.368 857.104C134.418 857.415 132.462 857.712 130.501 857.995L130.715 859.48ZM142.482 857.6L142.741 859.078C144.702 858.734 146.659 858.375 148.61 858.002L148.328 856.529L148.046 855.055C146.11 855.426 144.169 855.781 142.223 856.123L142.482 857.6ZM154.163 855.367L154.467 856.836C156.423 856.431 158.373 856.011 160.317 855.577L159.991 854.113L159.664 852.649C157.734 853.08 155.799 853.496 153.859 853.898L154.163 855.367ZM165.785 852.773L166.134 854.232C168.071 853.769 170.002 853.291 171.926 852.799L171.555 851.346L171.184 849.892C169.273 850.381 167.358 850.855 165.436 851.315L165.785 852.773ZM177.32 849.825L177.714 851.272C179.637 850.749 181.554 850.212 183.465 849.66L183.049 848.219L182.633 846.778C180.737 847.325 178.835 847.858 176.927 848.377L177.32 849.825ZM188.744 846.528L189.182 847.962C191.092 847.379 192.996 846.781 194.894 846.17L194.434 844.742L193.973 843.314C192.091 843.921 190.201 844.514 188.306 845.093L188.744 846.528ZM200.084 842.873L200.566 844.293C202.45 843.654 204.328 843 206.199 842.333L205.695 840.92L205.191 839.507C203.335 840.169 201.472 840.818 199.602 841.452L200.084 842.873ZM211.294 838.874L211.82 840.279C213.687 839.581 215.547 838.868 217.401 838.142L216.853 836.745L216.306 835.349C214.467 836.069 212.621 836.776 210.768 837.469L211.294 838.874ZM222.37 834.534L222.939 835.922C224.785 835.166 226.624 834.396 228.455 833.612L227.865 832.233L227.275 830.854C225.458 831.631 223.633 832.396 221.801 833.146L222.37 834.534ZM233.321 829.848L233.932 831.218C235.75 830.407 237.561 829.582 239.363 828.744L238.731 827.383L238.099 826.023C236.31 826.855 234.513 827.673 232.709 828.479L233.321 829.848ZM244.111 824.831L244.764 826.182C246.559 825.313 248.346 824.431 250.125 823.536L249.451 822.197L248.777 820.857C247.012 821.745 245.239 822.62 243.458 823.481L244.111 824.831ZM254.743 819.483L255.437 820.812C257.204 819.889 258.962 818.953 260.712 818.004L259.997 816.685L259.282 815.367C257.545 816.309 255.801 817.238 254.048 818.154L254.743 819.483ZM265.209 813.806L265.945 815.113C267.681 814.136 269.408 813.147 271.126 812.145L270.371 810.849L269.615 809.553C267.91 810.548 266.196 811.529 264.474 812.498L265.209 813.806ZM275.488 807.812L276.264 809.096C277.97 808.065 279.668 807.021 281.357 805.965L280.562 804.693L279.766 803.422C278.091 804.469 276.406 805.505 274.713 806.528L275.488 807.812ZM285.581 801.5L286.396 802.759C288.069 801.677 289.732 800.583 291.386 799.476L290.552 798.229L289.717 796.982C288.076 798.081 286.426 799.167 284.766 800.241L285.581 801.5ZM295.475 794.879L296.328 796.112C297.966 794.979 299.595 793.833 301.214 792.676L300.341 791.455L299.469 790.235C297.863 791.384 296.247 792.521 294.621 793.645L295.475 794.879ZM305.154 787.957L306.046 789.164C307.649 787.979 309.242 786.783 310.826 785.575L309.916 784.382L309.006 783.19C307.435 784.388 305.854 785.576 304.263 786.751L305.154 787.957ZM314.619 780.736L315.547 781.914C317.111 780.682 318.666 779.438 320.21 778.182L319.264 777.018L318.317 775.854C316.785 777.1 315.243 778.335 313.691 779.558L314.619 780.736ZM323.854 773.225L324.818 774.374C326.344 773.093 327.859 771.801 329.364 770.498L328.382 769.364L327.4 768.23C325.907 769.523 324.403 770.806 322.889 772.076L323.854 773.225ZM332.848 765.433L333.848 766.552C335.334 765.224 336.809 763.884 338.273 762.534L337.256 761.431L336.239 760.329C334.786 761.668 333.323 762.997 331.848 764.315L332.848 765.433ZM341.599 757.362L342.633 758.449C344.076 757.076 345.507 755.693 346.928 754.298L345.877 753.228L344.826 752.157C343.417 753.541 341.996 754.914 340.565 756.276L341.599 757.362ZM350.093 749.024L351.16 750.078C352.559 748.66 353.948 747.232 355.324 745.793L354.241 744.756L353.157 743.719C351.791 745.147 350.414 746.564 349.025 747.97L350.093 749.024ZM358.32 740.425L359.42 741.445C360.775 739.984 362.118 738.513 363.449 737.032L362.334 736.029L361.218 735.026C359.897 736.496 358.565 737.956 357.221 739.405L358.32 740.425ZM366.276 731.571L367.408 732.556C368.715 731.054 370.011 729.542 371.295 728.019L370.148 727.052L369.002 726.085C367.728 727.596 366.443 729.096 365.145 730.586L366.276 731.571ZM373.949 722.473L375.111 723.422C376.371 721.879 377.619 720.327 378.854 718.764L377.678 717.834L376.501 716.904C375.275 718.453 374.038 719.994 372.788 721.524L373.949 722.473ZM381.332 713.137L382.524 714.049C383.734 712.467 384.932 710.877 386.117 709.276L384.912 708.383L383.707 707.491C382.531 709.078 381.342 710.656 380.141 712.225L381.332 713.137ZM388.416 703.573L389.635 704.447C390.795 702.828 391.943 701.199 393.077 699.562L391.844 698.707L390.611 697.853C389.486 699.478 388.348 701.093 387.197 702.7L388.416 703.573ZM399.724 689.633C398.642 691.306 397.547 692.97 396.44 694.624L395.193 693.79L393.947 692.956C395.046 691.314 396.132 689.664 397.205 688.004L398.464 688.819L399.724 689.633ZM401.657 683.794L402.929 684.589C403.984 682.9 405.024 681.203 406.052 679.497L404.767 678.723L403.482 677.949C402.463 679.641 401.43 681.325 400.385 683L401.657 683.794ZM407.796 673.602L409.093 674.355C410.094 672.632 411.081 670.901 412.054 669.162L410.745 668.429L409.436 667.697C408.47 669.422 407.491 671.139 406.499 672.848L407.796 673.602ZM413.607 663.215L414.928 663.927C415.872 662.174 416.802 660.413 417.718 658.644L416.387 657.954L415.055 657.264C414.146 659.019 413.223 660.766 412.287 662.504L413.607 663.215ZM419.083 652.646L420.426 653.314C421.313 651.533 422.185 649.744 423.044 647.947L421.69 647.3L420.337 646.653C419.485 648.436 418.62 650.21 417.74 651.977L419.083 652.646ZM424.212 641.912L425.576 642.536C426.406 640.725 427.221 638.907 428.022 637.081L426.649 636.478L425.275 635.875C424.48 637.687 423.672 639.49 422.848 641.287L424.212 641.912ZM428.994 631.012L430.377 631.593C431.147 629.758 431.903 627.916 432.643 626.067L431.251 625.509L429.859 624.951C429.124 626.785 428.375 628.612 427.611 630.432L428.994 631.012ZM433.421 619.963L434.822 620.498C435.532 618.64 436.227 616.774 436.908 614.902L435.498 614.389L434.088 613.877C433.413 615.734 432.724 617.584 432.02 619.428L433.421 619.963ZM437.484 608.784L438.902 609.273C439.552 607.39 440.187 605.501 440.807 603.605L439.381 603.139L437.955 602.672C437.34 604.553 436.71 606.427 436.066 608.295L437.484 608.784ZM441.184 597.469L442.617 597.912C443.204 596.012 443.776 594.107 444.333 592.195L442.893 591.775L441.453 591.355C440.901 593.252 440.333 595.142 439.751 597.026L441.184 597.469ZM444.512 586.044L445.959 586.44C446.485 584.52 446.995 582.594 447.49 580.663L446.037 580.29L444.584 579.918C444.093 581.834 443.587 583.744 443.066 585.648L444.512 586.044ZM447.465 574.522L448.924 574.871C449.387 572.934 449.834 570.992 450.266 569.044L448.802 568.719L447.337 568.395C446.909 570.327 446.465 572.253 446.006 574.173L447.465 574.522ZM450.044 562.894L451.514 563.195C451.912 561.25 452.295 559.299 452.662 557.343L451.188 557.066L449.714 556.789C449.349 558.729 448.969 560.664 448.575 562.593L450.044 562.894ZM452.239 551.207L453.718 551.459C454.054 549.495 454.374 547.525 454.679 545.55L453.196 545.322L451.714 545.093C451.412 547.052 451.094 549.005 450.761 550.954L452.239 551.207ZM454.054 539.449L455.54 539.654C455.811 537.683 456.067 535.708 456.307 533.728L454.818 533.547L453.329 533.367C453.091 535.331 452.837 537.29 452.568 539.244L454.054 539.449ZM455.488 527.617L456.98 527.773C457.187 525.801 457.378 523.825 457.553 521.844L456.059 521.712L454.565 521.579C454.391 523.544 454.201 525.505 453.996 527.461L455.488 527.617ZM456.536 515.783L458.032 515.891C458.175 513.903 458.303 511.91 458.415 509.913L456.918 509.829L455.42 509.745C455.309 511.726 455.182 513.702 455.039 515.675L456.536 515.783ZM457.203 503.896L458.701 503.956C458.781 501.972 458.844 499.984 458.892 497.992L457.393 497.956L455.893 497.92C455.846 499.896 455.783 501.868 455.704 503.836L457.203 503.896Z" fill="#564141" fill-opacity="0.4"/>
<rect x="6.00002" y="89" width="569" height="776" fill="url(#paint0_radial_373_30)" fill-opacity="0.6"/>
<path d="M68.9967 86.1002L71.8741 95.8695L67.3742 95.8394L67.5062 85.3403L68.8562 85.3493C71.3061 85.3656 73.193 84.4282 74.5169 82.537C75.8907 80.6462 76.9034 77.6529 77.5549 73.5572C78.2071 69.4116 78.6237 64.1143 78.8047 57.6655C78.9858 51.2167 79.1332 43.4676 79.2469 34.4183L76.547 34.4003L76.5564 33.6504L90.0561 33.7404L89.4057 85.4864L93.1556 85.5114L93.0237 96.0105L88.5238 95.9805L91.6462 86.2513L68.9967 86.1002ZM79.9969 34.4233C79.8945 42.5727 79.7555 49.6468 79.5801 55.6457C79.4047 61.6445 79.0663 66.6923 78.5648 70.789C78.0639 74.8356 77.3487 78.0309 76.4192 80.3747C75.4896 82.7185 74.1943 84.3349 72.533 85.2238L72.5311 85.3738L84.9058 85.4563L85.5468 34.4604L79.9969 34.4233Z" fill="#262019"/>
<path d="M133.614 41.2291L128.104 40.5594C126.789 49.9678 125.649 57.9372 124.685 64.4676C123.778 70.9544 122.743 76.1919 121.579 80.18C120.416 84.1681 118.986 86.9907 117.29 88.6479C115.602 90.2556 113.343 90.8875 110.513 90.5436L111.137 86.087C112.775 86.2861 114.16 86.3035 115.294 86.1391C116.427 85.9747 117.414 85.4148 118.255 84.4594C119.152 83.4605 119.941 81.97 120.622 79.9881C121.303 78.0061 121.96 75.291 122.594 71.8429C123.277 68.4007 123.975 64.1295 124.689 59.0291C125.458 53.8853 126.349 47.6985 127.36 40.4689L124.68 40.1431L124.784 39.4003L138.185 41.0293L130.913 93.0233L126.446 92.4803L133.614 41.2291Z" fill="#262019"/>
<path d="M177.231 89.7832C175.849 91.4033 174.195 92.8897 172.269 94.2425C170.36 95.5477 168.322 96.6058 166.155 97.4165C164.053 98.1942 161.909 98.6988 159.725 98.9303C157.557 99.1143 155.539 98.926 153.671 98.3654L155.093 94.096C156.577 94.5416 158.15 94.9613 159.81 95.3552C161.485 95.7016 163.216 95.8037 165.002 95.6613C166.851 95.4859 168.715 94.9497 170.594 94.0527C172.537 93.1226 174.494 91.5967 176.465 89.4749C175.427 89.1112 174.277 88.6095 173.015 87.9699C171.817 87.2971 170.634 86.4986 169.467 85.5743C168.3 84.65 167.212 83.5668 166.204 82.3248C165.243 81.0972 164.497 79.6992 163.966 78.1309C163.451 76.5151 163.174 74.7362 163.136 72.7941C163.162 70.819 163.562 68.6692 164.336 66.3447C165.6 62.5496 167.337 59.7055 169.548 57.8123C171.807 55.9334 174.179 54.6626 176.665 53.9999C179.151 53.3372 181.566 53.123 183.911 53.3573C186.256 53.5916 188.171 53.9315 189.656 54.3772L193.966 55.6709L177.376 105.481L173.066 104.187L177.806 89.9557L177.231 89.7832ZM189.419 55.0887C188.221 54.7294 186.714 54.5116 184.895 54.4354C183.141 54.3262 181.292 54.6583 179.349 55.4317C177.469 56.172 175.631 57.4988 173.835 59.4122C172.087 61.3399 170.596 64.1539 169.364 67.854C168.132 71.5542 167.647 74.67 167.91 77.2015C168.221 79.7473 168.913 81.8597 169.987 83.5387C171.125 85.1847 172.436 86.4655 173.923 87.3812C175.472 88.2638 176.846 88.8848 178.043 89.2442L189.419 55.0887Z" fill="#262019"/>
<path d="M241.908 92.7393L250.238 75.9412L254.354 77.7584L231.031 124.793L226.914 122.976L241.575 93.4113L232.655 89.4741L217.995 119.039L213.878 117.222L237.201 70.1868L241.318 72.004L232.988 88.8021L241.908 92.7393Z" fill="#262019"/>
<path d="M268.591 125.455L263.728 122.781L254.302 134.692L253.447 134.222L280.5 100.037L284.5 91.4679L288.509 93.6719L266.329 141.304L262.254 139.064L268.591 125.455ZM268.921 124.782L278.203 105.013L277.94 104.869L264.189 122.18L268.921 124.782Z" fill="#262019"/>
<path d="M311.057 168.849L307.316 166.348L333.201 132.232C332.275 132.213 331.285 132.032 330.231 131.687C329.249 131.331 328.175 130.763 327.012 129.985C323.894 127.901 321.984 125.424 321.28 122.552C320.619 119.708 321.346 116.892 323.461 114.104L327.202 116.605C326.447 117.601 325.739 118.658 325.077 119.777C324.488 120.884 324.12 121.989 323.973 123.091C323.897 124.181 324.1 125.277 324.58 126.378C325.09 127.44 326.052 128.443 327.465 129.388C328.67 130.194 329.779 130.755 330.792 131.072C331.877 131.377 332.876 131.504 333.79 131.455L339.049 124.524L342.79 127.025L311.057 168.849Z" fill="#262019"/>
<path d="M343.911 173.234L339.58 169.763L328.118 179.759L327.357 179.149L360.253 150.459L365.749 142.778L369.319 145.64L338.827 188.343L335.199 185.435L343.911 173.234ZM344.358 172.633L357.088 154.924L356.854 154.736L340.145 169.256L344.358 172.633Z" fill="#262019"/>
<path d="M411.893 182.613L407.892 178.766C400.863 185.156 394.888 190.554 389.969 194.959C385.122 199.365 380.965 202.739 377.499 205.081C374.033 207.423 371.093 208.714 368.679 208.953C366.301 209.159 364.086 208.274 362.031 206.298L365.361 203.271C366.551 204.415 367.653 205.267 368.668 205.828C369.682 206.389 370.831 206.558 372.112 206.337C373.467 206.117 375.047 205.456 376.852 204.355C378.657 203.253 380.909 201.577 383.607 199.327C386.341 197.111 389.613 194.271 393.424 190.807C397.307 187.343 401.95 183.157 407.352 178.246L405.406 176.375L405.961 175.87L415.692 185.228L376.844 220.542L373.6 217.423L411.893 182.613Z" fill="#262019"/>
<path d="M410.131 233.658L406.48 229.478L393.407 237.262L392.766 236.528L430.283 214.188L437.064 207.619L440.074 211.064L402.438 247.598L399.378 244.096L410.131 233.658ZM410.679 233.147L426.37 218.012L426.173 217.786L407.126 229.081L410.679 233.147Z" fill="#262019"/>
<path d="M428.099 274.766C428.802 274.288 429.551 274.112 430.344 274.236C431.138 274.361 431.797 274.758 432.32 275.427C432.874 276.137 433.078 276.843 432.931 277.545C432.815 278.288 432.405 278.898 431.702 279.375C430.957 279.881 430.209 280.057 429.456 279.905C428.693 279.82 428.035 279.423 427.48 278.714C426.957 278.044 426.753 277.338 426.87 276.596C426.945 275.881 427.354 275.272 428.099 274.766Z" fill="#262019"/>
<path d="M437.175 288.371C437.932 287.985 438.697 287.903 439.469 288.125C440.241 288.347 440.844 288.823 441.28 289.553C441.742 290.326 441.855 291.052 441.622 291.731C441.414 292.453 440.931 293.007 440.174 293.394C439.372 293.803 438.608 293.885 437.881 293.64C437.134 293.46 436.53 292.984 436.069 292.211C435.633 291.482 435.519 290.756 435.727 290.033C435.891 289.334 436.373 288.78 437.175 288.371Z" fill="#262019"/>
<path d="M445.075 302.404C445.838 302.028 446.603 301.957 447.372 302.191C448.14 302.424 448.737 302.909 449.162 303.645C449.612 304.424 449.715 305.152 449.472 305.828C449.253 306.547 448.763 307.094 448 307.47C447.193 307.867 446.427 307.938 445.704 307.683C444.96 307.493 444.363 307.008 443.913 306.229C443.488 305.493 443.385 304.765 443.603 304.046C443.777 303.349 444.267 302.801 445.075 302.404Z" fill="#262019"/>
<defs>
<radialGradient id="paint0_radial_373_30" cx="0" cy="0" r="1" gradientUnits="userSpaceOnUse" gradientTransform="translate(178.254 454.347) rotate(-3.33028) scale(329.956 437.287)">
<stop stop-color="#E6B377"/>
<stop offset="1" stop-color="#FFD6A5" stop-opacity="0"/>
</radialGradient>
</defs>
</svg>
