<svg width="189" height="505" viewBox="0 0 189 505" fill="none" xmlns="http://www.w3.org/2000/svg">
<path d="M19.2 176.944C18.944 179.589 18.56 182.235 18.048 184.88C17.6213 187.44 16.9387 189.701 16 191.664C15.0613 193.712 13.7387 195.333 12.032 196.528C10.4107 197.808 8.27733 198.448 5.632 198.448V190.768C8.10667 190.768 10.0267 190.427 11.392 189.744C12.8427 189.061 13.952 188.123 14.72 186.928C15.5733 185.648 16.1707 184.155 16.512 182.448C16.8533 180.741 17.1947 178.821 17.536 176.688L26.368 100.4H28.16L19.2 176.944ZM0 100.4H7.808L16.256 170.16H8.32L0 100.4ZM33.25 101.68V100.4H71.65V101.68H56.29V190H48.61V101.68H33.25ZM107.661 164.4C106.296 167.728 104.418 170.971 102.029 174.128C99.6397 177.2 96.909 179.931 93.837 182.32C90.8503 184.624 87.6503 186.501 84.237 187.952C80.8237 189.317 77.453 190 74.125 190V182.32C76.7703 182.32 79.5437 182.235 82.445 182.064C85.3463 181.808 88.205 181.125 91.021 180.016C93.9223 178.821 96.653 177.029 99.213 174.64C101.858 172.165 104.205 168.709 106.253 164.272C104.376 164.187 102.242 163.931 99.853 163.504C97.549 162.992 95.2023 162.267 92.813 161.328C90.4237 160.389 88.077 159.152 85.773 157.616C83.5543 156.08 81.5917 154.16 79.885 151.856C78.1783 149.467 76.7703 146.693 75.661 143.536C74.637 140.293 74.125 136.581 74.125 132.4C74.125 125.573 75.405 120.069 77.965 115.888C80.6103 111.707 83.7677 108.464 87.437 106.16C91.1063 103.856 94.9037 102.32 98.829 101.552C102.754 100.784 106.04 100.4 108.685 100.4H116.365V190H108.685V164.4H107.661ZM108.685 101.68C106.552 101.68 103.992 102.064 101.005 102.832C98.1037 103.515 95.2877 104.965 92.557 107.184C89.9117 109.317 87.6503 112.389 85.773 116.4C83.981 120.411 83.085 125.744 83.085 132.4C83.085 139.056 83.981 144.389 85.773 148.4C87.6503 152.411 89.9117 155.525 92.557 157.744C95.2877 159.877 98.1037 161.328 101.005 162.096C103.992 162.779 106.552 163.12 108.685 163.12V101.68ZM124 101.68V100.4H162.4V101.68H147.04V190H139.36V101.68H124ZM177.705 164.4H168.233L165.289 190H163.625L172.073 116.528L170.153 100.4H177.961L188.713 190H180.777L177.705 164.4ZM177.577 163.12L173.225 125.872H172.713L168.361 163.12H177.577Z" fill="#262019"/>
<path d="M19.2 76.944C18.944 79.5893 18.56 82.2347 18.048 84.88C17.6213 87.44 16.9387 89.7013 16 91.664C15.0613 93.712 13.7387 95.3333 12.032 96.528C10.4107 97.808 8.27733 98.448 5.632 98.448V90.768C8.10667 90.768 10.0267 90.4267 11.392 89.744C12.8427 89.0613 13.952 88.1227 14.72 86.928C15.5733 85.648 16.1707 84.1547 16.512 82.448C16.8533 80.7413 17.1947 78.8213 17.536 76.688L26.368 0.399994H28.16L19.2 76.944ZM0 0.399994H7.808L16.256 70.16H8.32L0 0.399994ZM33.25 1.67999V0.399994H71.65V1.67999H56.29V90H48.61V1.67999H33.25ZM107.661 64.4C106.296 67.728 104.418 70.9707 102.029 74.128C99.6397 77.2 96.909 79.9307 93.837 82.32C90.8503 84.624 87.6503 86.5013 84.237 87.952C80.8237 89.3173 77.453 90 74.125 90V82.32C76.7703 82.32 79.5437 82.2347 82.445 82.064C85.3463 81.808 88.205 81.1253 91.021 80.016C93.9223 78.8213 96.653 77.0293 99.213 74.64C101.858 72.1653 104.205 68.7093 106.253 64.272C104.376 64.1867 102.242 63.9307 99.853 63.504C97.549 62.992 95.2023 62.2667 92.813 61.328C90.4237 60.3893 88.077 59.152 85.773 57.616C83.5543 56.08 81.5917 54.16 79.885 51.856C78.1783 49.4667 76.7703 46.6933 75.661 43.536C74.637 40.2933 74.125 36.5813 74.125 32.4C74.125 25.5733 75.405 20.0693 77.965 15.888C80.6103 11.7067 83.7677 8.464 87.437 6.16C91.1063 3.856 94.9037 2.31999 98.829 1.55199C102.754 0.783994 106.04 0.399994 108.685 0.399994H116.365V90H108.685V64.4H107.661ZM108.685 1.67999C106.552 1.67999 103.992 2.06399 101.005 2.83199C98.1037 3.51466 95.2877 4.96533 92.557 7.184C89.9117 9.31733 87.6503 12.3893 85.773 16.4C83.981 20.4107 83.085 25.744 83.085 32.4C83.085 39.056 83.981 44.3893 85.773 48.4C87.6503 52.4107 89.9117 55.5253 92.557 57.744C95.2877 59.8773 98.1037 61.328 101.005 62.096C103.992 62.7787 106.552 63.12 108.685 63.12V1.67999ZM124 1.67999V0.399994H162.4V1.67999H147.04V90H139.36V1.67999H124ZM177.705 64.4H168.233L165.289 90H163.625L172.073 16.528L170.153 0.399994H177.961L188.713 90H180.777L177.705 64.4ZM177.577 63.12L173.225 25.872H172.713L168.361 63.12H177.577Z" fill="#262019" fill-opacity="0.58"/>
<path d="M19.2 276.944C18.944 279.589 18.56 282.235 18.048 284.88C17.6213 287.44 16.9387 289.701 16 291.664C15.0613 293.712 13.7387 295.333 12.032 296.528C10.4107 297.808 8.27733 298.448 5.632 298.448V290.768C8.10667 290.768 10.0267 290.427 11.392 289.744C12.8427 289.061 13.952 288.123 14.72 286.928C15.5733 285.648 16.1707 284.155 16.512 282.448C16.8533 280.741 17.1947 278.821 17.536 276.688L26.368 200.4H28.16L19.2 276.944ZM0 200.4H7.808L16.256 270.16H8.32L0 200.4ZM33.25 201.68V200.4H71.65V201.68H56.29V290H48.61V201.68H33.25ZM107.661 264.4C106.296 267.728 104.418 270.971 102.029 274.128C99.6397 277.2 96.909 279.931 93.837 282.32C90.8503 284.624 87.6503 286.501 84.237 287.952C80.8237 289.317 77.453 290 74.125 290V282.32C76.7703 282.32 79.5437 282.235 82.445 282.064C85.3463 281.808 88.205 281.125 91.021 280.016C93.9223 278.821 96.653 277.029 99.213 274.64C101.858 272.165 104.205 268.709 106.253 264.272C104.376 264.187 102.242 263.931 99.853 263.504C97.549 262.992 95.2023 262.267 92.813 261.328C90.4237 260.389 88.077 259.152 85.773 257.616C83.5543 256.08 81.5917 254.16 79.885 251.856C78.1783 249.467 76.7703 246.693 75.661 243.536C74.637 240.293 74.125 236.581 74.125 232.4C74.125 225.573 75.405 220.069 77.965 215.888C80.6103 211.707 83.7677 208.464 87.437 206.16C91.1063 203.856 94.9037 202.32 98.829 201.552C102.754 200.784 106.04 200.4 108.685 200.4H116.365V290H108.685V264.4H107.661ZM108.685 201.68C106.552 201.68 103.992 202.064 101.005 202.832C98.1037 203.515 95.2877 204.965 92.557 207.184C89.9117 209.317 87.6503 212.389 85.773 216.4C83.981 220.411 83.085 225.744 83.085 232.4C83.085 239.056 83.981 244.389 85.773 248.4C87.6503 252.411 89.9117 255.525 92.557 257.744C95.2877 259.877 98.1037 261.328 101.005 262.096C103.992 262.779 106.552 263.12 108.685 263.12V201.68ZM124 201.68V200.4H162.4V201.68H147.04V290H139.36V201.68H124ZM177.705 264.4H168.233L165.289 290H163.625L172.073 216.528L170.153 200.4H177.961L188.713 290H180.777L177.705 264.4ZM177.577 263.12L173.225 225.872H172.713L168.361 263.12H177.577Z" fill="#262019" fill-opacity="0.58"/>
<path d="M19.2 374.944C18.944 377.589 18.56 380.235 18.048 382.88C17.6213 385.44 16.9387 387.701 16 389.664C15.0613 391.712 13.7387 393.333 12.032 394.528C10.4107 395.808 8.27733 396.448 5.632 396.448V388.768C8.10667 388.768 10.0267 388.427 11.392 387.744C12.8427 387.061 13.952 386.123 14.72 384.928C15.5733 383.648 16.1707 382.155 16.512 380.448C16.8533 378.741 17.1947 376.821 17.536 374.688L26.368 298.4H28.16L19.2 374.944ZM0 298.4H7.808L16.256 368.16H8.32L0 298.4ZM33.25 299.68V298.4H71.65V299.68H56.29V388H48.61V299.68H33.25ZM107.661 362.4C106.296 365.728 104.418 368.971 102.029 372.128C99.6397 375.2 96.909 377.931 93.837 380.32C90.8503 382.624 87.6503 384.501 84.237 385.952C80.8237 387.317 77.453 388 74.125 388V380.32C76.7703 380.32 79.5437 380.235 82.445 380.064C85.3463 379.808 88.205 379.125 91.021 378.016C93.9223 376.821 96.653 375.029 99.213 372.64C101.858 370.165 104.205 366.709 106.253 362.272C104.376 362.187 102.242 361.931 99.853 361.504C97.549 360.992 95.2023 360.267 92.813 359.328C90.4237 358.389 88.077 357.152 85.773 355.616C83.5543 354.08 81.5917 352.16 79.885 349.856C78.1783 347.467 76.7703 344.693 75.661 341.536C74.637 338.293 74.125 334.581 74.125 330.4C74.125 323.573 75.405 318.069 77.965 313.888C80.6103 309.707 83.7677 306.464 87.437 304.16C91.1063 301.856 94.9037 300.32 98.829 299.552C102.754 298.784 106.04 298.4 108.685 298.4H116.365V388H108.685V362.4H107.661ZM108.685 299.68C106.552 299.68 103.992 300.064 101.005 300.832C98.1037 301.515 95.2877 302.965 92.557 305.184C89.9117 307.317 87.6503 310.389 85.773 314.4C83.981 318.411 83.085 323.744 83.085 330.4C83.085 337.056 83.981 342.389 85.773 346.4C87.6503 350.411 89.9117 353.525 92.557 355.744C95.2877 357.877 98.1037 359.328 101.005 360.096C103.992 360.779 106.552 361.12 108.685 361.12V299.68ZM124 299.68V298.4H162.4V299.68H147.04V388H139.36V299.68H124ZM177.705 362.4H168.233L165.289 388H163.625L172.073 314.528L170.153 298.4H177.961L188.713 388H180.777L177.705 362.4ZM177.577 361.12L173.225 323.872H172.713L168.361 361.12H177.577Z" fill="#262019" fill-opacity="0.27"/>
<path d="M19.2 473.944C18.944 476.589 18.56 479.235 18.048 481.88C17.6213 484.44 16.9387 486.701 16 488.664C15.0613 490.712 13.7387 492.333 12.032 493.528C10.4107 494.808 8.27733 495.448 5.632 495.448V487.768C8.10667 487.768 10.0267 487.427 11.392 486.744C12.8427 486.061 13.952 485.123 14.72 483.928C15.5733 482.648 16.1707 481.155 16.512 479.448C16.8533 477.741 17.1947 475.821 17.536 473.688L26.368 397.4H28.16L19.2 473.944ZM0 397.4H7.808L16.256 467.16H8.32L0 397.4ZM33.25 398.68V397.4H71.65V398.68H56.29V487H48.61V398.68H33.25ZM107.661 461.4C106.296 464.728 104.418 467.971 102.029 471.128C99.6397 474.2 96.909 476.931 93.837 479.32C90.8503 481.624 87.6503 483.501 84.237 484.952C80.8237 486.317 77.453 487 74.125 487V479.32C76.7703 479.32 79.5437 479.235 82.445 479.064C85.3463 478.808 88.205 478.125 91.021 477.016C93.9223 475.821 96.653 474.029 99.213 471.64C101.858 469.165 104.205 465.709 106.253 461.272C104.376 461.187 102.242 460.931 99.853 460.504C97.549 459.992 95.2023 459.267 92.813 458.328C90.4237 457.389 88.077 456.152 85.773 454.616C83.5543 453.08 81.5917 451.16 79.885 448.856C78.1783 446.467 76.7703 443.693 75.661 440.536C74.637 437.293 74.125 433.581 74.125 429.4C74.125 422.573 75.405 417.069 77.965 412.888C80.6103 408.707 83.7677 405.464 87.437 403.16C91.1063 400.856 94.9037 399.32 98.829 398.552C102.754 397.784 106.04 397.4 108.685 397.4H116.365V487H108.685V461.4H107.661ZM108.685 398.68C106.552 398.68 103.992 399.064 101.005 399.832C98.1037 400.515 95.2877 401.965 92.557 404.184C89.9117 406.317 87.6503 409.389 85.773 413.4C83.981 417.411 83.085 422.744 83.085 429.4C83.085 436.056 83.981 441.389 85.773 445.4C87.6503 449.411 89.9117 452.525 92.557 454.744C95.2877 456.877 98.1037 458.328 101.005 459.096C103.992 459.779 106.552 460.12 108.685 460.12V398.68ZM124 398.68V397.4H162.4V398.68H147.04V487H139.36V398.68H124ZM177.705 461.4H168.233L165.289 487H163.625L172.073 413.528L170.153 397.4H177.961L188.713 487H180.777L177.705 461.4ZM177.577 460.12L173.225 422.872H172.713L168.361 460.12H177.577Z" fill="#262019" fill-opacity="0.07"/>
</svg>
