<svg width="1297" height="1521" viewBox="0 0 1297 1521" fill="none" xmlns="http://www.w3.org/2000/svg">
<path d="M-7 759.5C78.1667 869.167 101.857 1052.63 265.5 1108.5C412.718 1158.76 532.001 922.289 687 935.5C834.69 948.088 966 990.5 1044.5 1123.5C1103.16 1222.88 1044.5 1318 1168 1415C1291.5 1512 1272 1500.17 1298.5 1520" stroke="#BCA27A" stroke-width="2"/>
<path d="M0 722C85.1667 831.667 108.857 1015.13 272.5 1071C419.718 1121.26 539.001 884.789 694 898C841.69 910.588 973 953 1051.5 1086C1110.16 1185.38 1051.5 1280.5 1175 1377.5C1298.5 1474.5 1279 1462.67 1305.5 1482.5" stroke="#BCA27A" stroke-opacity="0.8" stroke-width="3" stroke-dasharray="4 4"/>
<path d="M666.5 4C666.5 4 626.5 169.5 666.5 207.5C706.5 245.5 703 287 804 432.5C886.429 551.248 1147 535.5 1179 535.5C1204.6 535.5 1271 535.5 1301 535.5" stroke="#BCA27A" stroke-width="2"/>
<path d="M650.125 0C650.125 0 609.344 173.215 650.125 212.986C690.905 252.757 687.336 296.192 790.306 448.474C874.343 572.758 1140 556.276 1172.62 556.276C1198.72 556.276 1266.41 556.276 1297 556.276" stroke="#BCA27A" stroke-width="2" stroke-dasharray="4 4"/>
</svg>
