<svg width="650" height="650" viewBox="0 0 650 650" fill="none" xmlns="http://www.w3.org/2000/svg">
<g clip-path="url(#clip0_9_12)">
<path d="M2 0C2 0 73.4671 274.108 106.083 313.943C138.699 353.779 124.261 401.004 260 465.5C395.739 529.996 389.553 530.668 490.758 545.37C591.963 560.071 578.053 579.515 609.71 593.742L650 635" stroke="#C5B2A3"/>
<path d="M2 236C2 236 63.325 310.956 95.9408 335.987C128.557 361.018 137.26 477.963 272.999 518.488C408.739 559.014 399.736 546.152 500.941 555.39C602.146 564.627 578.053 600.136 609.71 609.075L650 635" stroke="#C5B2A3"/>
</g>
<defs>
<clipPath id="clip0_9_12">
<rect width="650" height="650" fill="white"/>
</clipPath>
</defs>
</svg>
